<?xml version="1.0" encoding="utf-8"?>
<!-- Generator: Adobe Illustrator 18.0.0, SVG Export Plug-In . SVG Version: 6.00 Build 0)  -->
<!DOCTYPE svg PUBLIC "-//W3C//DTD SVG 1.1//EN" "http://www.w3.org/Graphics/SVG/1.1/DTD/svg11.dtd">
<svg version="1.1" id="Layer_1" xmlns="http://www.w3.org/2000/svg" xmlns:xlink="http://www.w3.org/1999/xlink" x="0px" y="0px"
	 viewBox="0 0 430.8 287.2" enable-background="new 0 0 430.8 287.2" xml:space="preserve">
<g>
	<path fill="#FFFFFF" d="M375.1,243.5c0,7.1,0,13.2,0,19.7c-106.5,0-212.8,0-319.5,0c0-79.6,0-159.2,0-239.1c6.4,0,12.7,0,19.5,0
		c0,73.1,0,146,0,219.5C175.3,243.5,275,243.5,375.1,243.5z"/>
	<path fill="#FFFFFF" d="M334.9,223.4c-13.2,0-26,0-39.1,0c0-59.8,0-119.4,0-179.4c12.9,0,25.8,0,39.1,0
		C334.9,103.6,334.9,163.2,334.9,223.4z"/>
	<path fill="#FFFFFF" d="M214.9,223.4c-13.3,0-26,0-39.2,0c0-53.1,0-106.1,0-159.4c13,0,25.9,0,39.2,0
		C214.9,117,214.9,170,214.9,223.4z"/>
	<path fill="#FFFFFF" d="M235.8,103.8c13.1,0,25.9,0,39.1,0c0,39.8,0,79.4,0,119.4c-12.9,0-25.8,0-39.1,0
		C235.8,183.6,235.8,144,235.8,103.8z"/>
	<path fill="#FFFFFF" d="M155,223.3c-13.3,0-26.2,0-39.4,0c0-26.5,0-52.7,0-79.3c13.1,0,26.1,0,39.4,0
		C155,170.4,155,196.6,155,223.3z"/>
</g>
</svg>
